<svg width="22" height="22" viewBox="0 0 22 22" fill="none" xmlns="http://www.w3.org/2000/svg">
<path d="M3 5.17647H19M9 15.7647V9.41177M13 15.7647V9.41177M15 20H7C5.89543 20 5 19.0519 5 17.8824V6.23529C5 5.65052 5.44772 5.17647 6 5.17647H16C16.5523 5.17647 17 5.65052 17 6.23529V17.8824C17 19.0519 16.1046 20 15 20ZM9 5.17647H13C13.5523 5.17647 14 4.70242 14 4.11765V3.05882C14 2.47405 13.5523 2 13 2H9C8.44772 2 8 2.47405 8 3.05882V4.11765C8 4.70242 8.44772 5.17647 9 5.17647Z" stroke="black" stroke-width="1.4" stroke-linecap="round" stroke-linejoin="round"/>
</svg>
